<svg xmlns="http://www.w3.org/2000/svg" width="20" height="20" viewBox="0 0 20 20" fill="none">
    <path d="M15.1335 19.6799H4.86688C3.19854 19.6799 1.67687 18.3966 1.40187 16.7558L0.182708 9.44992C-0.0189587 8.31325 0.540208 6.85575 1.44771 6.13159L7.80021 1.04408C9.02854 0.0540849 10.9627 0.0632516 12.2002 1.05325L18.5527 6.13159C19.451 6.85575 20.001 8.31325 19.8177 9.44992L18.5985 16.7466C18.3235 18.3691 16.7652 19.6799 15.1335 19.6799ZM9.99104 1.68575C9.50521 1.68575 9.01938 1.83242 8.66188 2.11659L2.30938 7.21325C1.79604 7.62575 1.42937 8.57908 1.53937 9.22992L2.75854 16.5266C2.92354 17.4891 3.88604 18.3049 4.86688 18.3049H15.1335C16.1144 18.3049 17.0769 17.4891 17.2419 16.5174L18.461 9.22075C18.5619 8.57908 18.1952 7.60742 17.691 7.20408L11.3385 2.12575C10.9719 1.83242 10.4769 1.68575 9.99104 1.68575Z" fill="#FFFFFF"/>
</svg>